HIERARCHY
ROOT mixamorigHips
{
	OFFSET 0.000000 95.415794 0.000000
	CHANNELS 6 Xposition Yposition Zposition Xrotation Yrotation Zrotation
	JOINT mixamorigSpine
	{
		OFFSET 0.000000 10.058800 -0.358200
		CHANNELS 6 Xposition Yposition Zposition Xrotation Yrotation Zrotation
		JOINT mixamorigSpine1
		{
			OFFSET 0.000000 11.735359 -0.417847
			CHANNELS 3 Xrotation Yrotation Zrotation
			JOINT mixamorigSpine2
			{
				OFFSET 0.000000 13.411812 -0.477538
				CHANNELS 3 Xrotation Yrotation Zrotation
				JOINT mixamorigNeck
				{
					OFFSET 0.000000 15.088242 -0.537228
					CHANNELS 6 Xposition Yposition Zposition Xrotation Yrotation Zrotation
					JOINT mixamorigHead
					{
						OFFSET 0.000000 8.085602 2.687800
						CHANNELS 6 Xposition Yposition Zposition Xrotation Yrotation Zrotation
						JOINT mixamorigHeadTop_End
						{
							OFFSET 0.000000 21.499207 7.146700
							CHANNELS 6 Xposition Yposition Zposition Xrotation Yrotation Zrotation
							End Site
							{
								OFFSET 0.000000 22.655930 0.000000
							}
						}
					}
				}
				JOINT mixamorigLeftShoulder
				{
					OFFSET 5.949100 13.237015 -0.535855
					CHANNELS 6 Xposition Yposition Zposition Xrotation Yrotation Zrotation
					JOINT mixamorigLeftArm
					{
						OFFSET 11.918104 -3.676208 0.002851
						CHANNELS 3 Xrotation Yrotation Zrotation
						JOINT mixamorigLeftForeArm
						{
							OFFSET 23.814898 0.000000 -0.000001
							CHANNELS 3 Xrotation Yrotation Zrotation
							JOINT mixamorigLeftHand
							{
								OFFSET 24.556309 0.000000 -0.000001
								CHANNELS 3 Xrotation Yrotation Zrotation
								JOINT mixamorigLeftHandThumb1
								{
									OFFSET 2.802582 -1.204224 2.556223
									CHANNELS 6 Xposition Yposition Zposition Xrotation Yrotation Zrotation
									JOINT mixamorigLeftHandThumb2
									{
										OFFSET 2.466209 -1.423859 1.423865
										CHANNELS 6 Xposition Yposition Zposition Xrotation Yrotation Zrotation
										JOINT mixamorigLeftHandThumb3
										{
											OFFSET 2.369835 -1.368225 1.368225
											CHANNELS 6 Xposition Yposition Zposition Xrotation Yrotation Zrotation
											JOINT mixamorigLeftHandThumb4
											{
												OFFSET 1.846512 -1.066086 1.066086
												CHANNELS 6 Xposition Yposition Zposition Xrotation Yrotation Zrotation
												End Site
												{
													OFFSET 1.556206 -1.025696 1.486212
												}
											}
										}
									}
								}
								JOINT mixamorigLeftHandIndex1
								{
									OFFSET 8.620476 -0.225967 2.435161
									CHANNELS 6 Xposition Yposition Zposition Xrotation Yrotation Zrotation
									JOINT mixamorigLeftHandIndex2
									{
										OFFSET 3.045731 0.000000 -0.000000
										CHANNELS 6 Xposition Yposition Zposition Xrotation Yrotation Zrotation
										JOINT mixamorigLeftHandIndex3
										{
											OFFSET 2.806702 0.000000 -0.000000
											CHANNELS 6 Xposition Yposition Zposition Xrotation Yrotation Zrotation
											JOINT mixamorigLeftHandIndex4
											{
												OFFSET 2.440117 0.000000 -0.000000
												CHANNELS 6 Xposition Yposition Zposition Xrotation Yrotation Zrotation
												End Site
												{
													OFFSET 2.440094 -0.000061 -0.008200
												}
											}
										}
									}
								}
								JOINT mixamorigLeftHandMiddle1
								{
									OFFSET 8.484863 0.000000 -0.000000
									CHANNELS 6 Xposition Yposition Zposition Xrotation Yrotation Zrotation
									JOINT mixamorigLeftHandMiddle2
									{
										OFFSET 3.193611 0.000000 -0.000000
										CHANNELS 6 Xposition Yposition Zposition Xrotation Yrotation Zrotation
										JOINT mixamorigLeftHandMiddle3
										{
											OFFSET 3.085205 0.000000 -0.000000
											CHANNELS 6 Xposition Yposition Zposition Xrotation Yrotation Zrotation
											JOINT mixamorigLeftHandMiddle4
											{
												OFFSET 2.692902 0.000000 -0.000000
												CHANNELS 6 Xposition Yposition Zposition Xrotation Yrotation Zrotation
												End Site
												{
													OFFSET 2.692902 -0.000031 -0.003300
												}
											}
										}
									}
								}
								JOINT mixamorigLeftHandRing1
								{
									OFFSET 8.270775 0.052689 -2.023483
									CHANNELS 6 Xposition Yposition Zposition Xrotation Yrotation Zrotation
									JOINT mixamorigLeftHandRing2
									{
										OFFSET 2.740799 0.000000 -0.000000
										CHANNELS 6 Xposition Yposition Zposition Xrotation Yrotation Zrotation
										JOINT mixamorigLeftHandRing3
										{
											OFFSET 2.757607 0.000000 -0.000000
											CHANNELS 6 Xposition Yposition Zposition Xrotation Yrotation Zrotation
											JOINT mixamorigLeftHandRing4
											{
												OFFSET 2.285004 0.000000 -0.000000
												CHANNELS 6 Xposition Yposition Zposition Xrotation Yrotation Zrotation
												End Site
												{
													OFFSET 2.285004 0.000031 0.003000
												}
											}
										}
									}
								}
								JOINT mixamorigLeftHandPinky1
								{
									OFFSET 7.700752 -0.253616 -3.945376
									CHANNELS 6 Xposition Yposition Zposition Xrotation Yrotation Zrotation
									JOINT mixamorigLeftHandPinky2
									{
										OFFSET 2.527405 0.000000 0.000000
										CHANNELS 6 Xposition Yposition Zposition Xrotation Yrotation Zrotation
										JOINT mixamorigLeftHandPinky3
										{
											OFFSET 2.003403 0.000000 0.000000
											CHANNELS 6 Xposition Yposition Zposition Xrotation Yrotation Zrotation
											JOINT mixamorigLeftHandPinky4
											{
												OFFSET 1.854500 0.000000 0.000000
												CHANNELS 6 Xposition Yposition Zposition Xrotation Yrotation Zrotation
												End Site
												{
													OFFSET 1.854507 -0.000015 -0.001300
												}
											}
										}
									}
								}
							}
						}
					}
				}
				JOINT mixamorigRightShoulder
				{
					OFFSET -5.949100 13.237015 -0.538657
					CHANNELS 6 Xposition Yposition Zposition Xrotation Yrotation Zrotation
					JOINT mixamorigRightArm
					{
						OFFSET -11.918104 -3.676208 -0.002847
						CHANNELS 3 Xrotation Yrotation Zrotation
						JOINT mixamorigRightForeArm
						{
							OFFSET -23.819902 0.000000 0.000001
							CHANNELS 3 Xrotation Yrotation Zrotation
							JOINT mixamorigRightHand
							{
								OFFSET -24.559902 0.000000 0.000001
								CHANNELS 3 Xrotation Yrotation Zrotation
								JOINT mixamorigRightHandThumb1
								{
									OFFSET -2.702209 -1.308395 2.527615
									CHANNELS 6 Xposition Yposition Zposition Xrotation Yrotation Zrotation
									JOINT mixamorigRightHandThumb2
									{
										OFFSET -2.432022 -1.404129 1.404127
										CHANNELS 6 Xposition Yposition Zposition Xrotation Yrotation Zrotation
										JOINT mixamorigRightHandThumb3
										{
											OFFSET -2.375206 -1.371323 1.371325
											CHANNELS 6 Xposition Yposition Zposition Xrotation Yrotation Zrotation
											JOINT mixamorigRightHandThumb4
											{
												OFFSET -1.987808 -1.147659 1.147661
												CHANNELS 6 Xposition Yposition Zposition Xrotation Yrotation Zrotation
												End Site
												{
													OFFSET -1.835846 -1.144562 1.380323
												}
											}
										}
									}
								}
								JOINT mixamorigRightHandIndex1
								{
									OFFSET -8.671478 -0.301926 2.442636
									CHANNELS 6 Xposition Yposition Zposition Xrotation Yrotation Zrotation
									JOINT mixamorigRightHandIndex2
									{
										OFFSET -3.068298 0.000000 0.000000
										CHANNELS 6 Xposition Yposition Zposition Xrotation Yrotation Zrotation
										JOINT mixamorigRightHandIndex3
										{
											OFFSET -2.779701 0.000000 0.000000
											CHANNELS 6 Xposition Yposition Zposition Xrotation Yrotation Zrotation
											JOINT mixamorigRightHandIndex4
											{
												OFFSET -2.490097 0.000000 0.000000
												CHANNELS 6 Xposition Yposition Zposition Xrotation Yrotation Zrotation
												End Site
												{
													OFFSET -2.490097 0.000000 -0.000700
												}
											}
										}
									}
								}
								JOINT mixamorigRightHandMiddle1
								{
									OFFSET -8.656311 0.000000 0.000000
									CHANNELS 6 Xposition Yposition Zposition Xrotation Yrotation Zrotation
									JOINT mixamorigRightHandMiddle2
									{
										OFFSET -3.230400 0.000000 0.000000
										CHANNELS 6 Xposition Yposition Zposition Xrotation Yrotation Zrotation
										JOINT mixamorigRightHandMiddle3
										{
											OFFSET -3.025497 0.000000 0.000000
											CHANNELS 6 Xposition Yposition Zposition Xrotation Yrotation Zrotation
											JOINT mixamorigRightHandMiddle4
											{
												OFFSET -2.688805 0.000000 0.000000
												CHANNELS 6 Xposition Yposition Zposition Xrotation Yrotation Zrotation
												End Site
												{
													OFFSET -2.688797 0.000000 -0.000700
												}
											}
										}
									}
								}
								JOINT mixamorigRightHandRing1
								{
									OFFSET -8.628174 0.073822 -2.089274
									CHANNELS 6 Xposition Yposition Zposition Xrotation Yrotation Zrotation
									JOINT mixamorigRightHandRing2
									{
										OFFSET -2.674103 0.000000 0.000000
										CHANNELS 6 Xposition Yposition Zposition Xrotation Yrotation Zrotation
										JOINT mixamorigRightHandRing3
										{
											OFFSET -2.630905 0.000000 0.000000
											CHANNELS 6 Xposition Yposition Zposition Xrotation Yrotation Zrotation
											JOINT mixamorigRightHandRing4
											{
												OFFSET -2.160599 0.000000 0.000000
												CHANNELS 6 Xposition Yposition Zposition Xrotation Yrotation Zrotation
												End Site
												{
													OFFSET -2.160599 0.000000 -0.000900
												}
											}
										}
									}
								}
								JOINT mixamorigRightHandPinky1
								{
									OFFSET -7.514580 -0.339432 -3.927982
									CHANNELS 6 Xposition Yposition Zposition Xrotation Yrotation Zrotation
									JOINT mixamorigRightHandPinky2
									{
										OFFSET -2.510002 0.000000 0.000000
										CHANNELS 6 Xposition Yposition Zposition Xrotation Yrotation Zrotation
										JOINT mixamorigRightHandPinky3
										{
											OFFSET -2.099197 0.000000 0.000000
											CHANNELS 6 Xposition Yposition Zposition Xrotation Yrotation Zrotation
											JOINT mixamorigRightHandPinky4
											{
												OFFSET -1.845604 0.000000 0.000000
												CHANNELS 6 Xposition Yposition Zposition Xrotation Yrotation Zrotation
												End Site
												{
													OFFSET -1.845596 -0.000015 0.001600
												}
											}
										}
									}
								}
							}
						}
					}
				}
			}
		}
	}
	JOINT mixamorigLeftUpLeg
	{
		OFFSET 9.392100 -5.572197 -0.093200
		CHANNELS 6 Xposition Yposition Zposition Xrotation Yrotation Zrotation
		JOINT mixamorigLeftLeg
		{
			OFFSET 0.292645 -42.228855 -2.734330
			CHANNELS 3 Xrotation Yrotation Zrotation
			JOINT mixamorigLeftFoot
			{
				OFFSET -0.292647 -39.069244 -1.515097
				CHANNELS 3 Xrotation Yrotation Zrotation
				JOINT mixamorigLeftToeBase
				{
					OFFSET 1.771321 -7.534380 12.504712
					CHANNELS 3 Xrotation Yrotation Zrotation
					JOINT mixamorigLeftToe_End
					{
						OFFSET 0.606595 0.250482 5.917521
						CHANNELS 3 Xrotation Yrotation Zrotation
						End Site
						{
							OFFSET 0.606595 0.250482 5.917521
						}
					}
				}
			}
		}
	}
	JOINT mixamorigRightUpLeg
	{
		OFFSET -9.392100 -5.572197 -0.015200
		CHANNELS 6 Xposition Yposition Zposition Xrotation Yrotation Zrotation
		JOINT mixamorigRightLeg
		{
			OFFSET -0.292665 -42.228924 -2.850109
			CHANNELS 3 Xrotation Yrotation Zrotation
			JOINT mixamorigRightFoot
			{
				OFFSET 0.292671 -39.069195 -1.341140
				CHANNELS 3 Xrotation Yrotation Zrotation
				JOINT mixamorigRightToeBase
				{
					OFFSET -1.771318 -7.534140 12.379671
					CHANNELS 3 Xrotation Yrotation Zrotation
					JOINT mixamorigRightToe_End
					{
						OFFSET -0.606596 0.250612 6.000615
						CHANNELS 3 Xrotation Yrotation Zrotation
						End Site
						{
							OFFSET -0.606596 0.250612 6.000614
						}
					}
				}
			}
		}
	}
}
MOTION
Frames: 4
Frame Time: 0.033333
0.763978 94.765274 -0.205262 -3.272103 -5.896481 -3.241168 0.000002 10.058794 -0.358201 3.293337 1.542758 2.480006 1.155129 0.350193 1.801086 1.128934 0.369078 1.803919 -0.000001 15.088228 -0.537227 5.562985 -0.018662 0.393188 0.000001 8.085584 2.687802 -8.001188 1.714200 -0.329138 0.000001 21.499237 7.146701 0.000000 -0.000000 -0.000000 5.949099 13.236990 -0.535854 1.037730 -17.316515 -12.384968 2.537845 -19.725200 -69.238468 -0.000008 -1.822629 0.000005 -33.885825 -2.345522 -5.336907 2.802591 -1.204210 2.556232 -0.752924 1.989530 5.021452 2.466208 -1.423855 1.423869 11.787301 25.288072 17.098511 2.369843 -1.368233 1.368221 -13.824296 3.507102 9.033815 1.846506 -1.066088 1.066084 0.000003 0.000004 0.000006 8.620480 -0.225963 2.435164 0.007738 -1.042225 -7.455929 3.045727 0.000005 -0.000002 0.267806 1.752712 -17.373894 2.806707 0.000004 -0.000001 0.057652 0.820751 -8.036002 2.440111 -0.000023 -0.000001 -0.000000 -0.000001 -0.000004 8.484879 -0.000021 0.000000 -0.072759 2.661673 -15.499513 3.193599 -0.000027 -0.000001 0.266871 1.749722 -17.343249 3.085202 0.000007 -0.000000 0.298525 1.847935 -18.351069 2.692901 -0.000017 -0.000001 0.000001 -0.000000 0.000000 8.270775 0.052694 -2.023482 0.125327 3.609117 -21.074538 2.740809 0.000025 0.000000 0.385847 2.092776 -20.890938 2.757599 -0.000026 0.000000 0.282419 1.798693 -17.845083 2.285007 -0.000000 -0.000001 0.000001 0.000001 0.000002 7.700765 -0.253610 -3.945377 0.821054 5.415525 -27.002086 2.527395 -0.000010 0.000000 0.268141 1.753786 -17.384732 2.003409 0.000000 0.000001 0.241301 1.665626 -16.484738 1.854486 0.000015 0.000001 0.000000 0.000001 0.000002 -5.949117 13.237022 -0.538653 1.229592 15.538090 14.549935 12.239383 30.270121 58.557473 0.000012 8.363512 -0.000000 -21.791141 1.931970 5.745913 -2.702218 -1.308365 2.527624 -1.748340 -0.074844 -3.925089 -2.432026 -1.404151 1.404123 12.797576 -29.985029 -16.111272 -2.375215 -1.371317 1.371324 -15.640829 -3.356214 -12.641636 -1.987819 -1.147673 1.147660 0.000001 0.000000 0.000001 -8.671481 -0.301929 2.442636 0.023224 1.221539 7.146950 -3.068289 0.000003 -0.000001 0.213927 -1.396636 17.414814 -2.779688 -0.000011 -0.000003 0.046109 -0.654464 8.060865 -2.490094 0.000001 0.000001 -0.000003 0.000001 0.000002 -8.656292 0.000005 0.000001 -0.094168 -2.421140 15.754871 -3.230409 0.000012 0.000000 0.211442 -1.388752 17.313261 -3.025477 -0.000014 0.000001 0.236582 -1.466900 18.321708 -2.688790 -0.000010 -0.000002 0.000002 -0.000002 0.000000 -8.628169 0.073822 -2.089274 0.034855 -3.116108 21.111071 -2.674083 -0.000000 0.000001 0.307187 -1.664990 20.905351 -2.630900 0.000017 -0.000000 0.224746 -1.430678 17.853667 -2.160600 0.000016 0.000001 0.000001 -0.000000 -0.000003 -7.514572 -0.339417 -3.927980 0.713498 -4.833223 27.767441 -2.510010 0.000001 0.000001 0.213536 -1.395426 17.399202 -2.099204 0.000008 0.000002 0.192017 -1.324839 16.492972 -1.845601 0.000015 -0.000001 0.000000 0.000002 -0.000001 9.392101 -5.572197 -0.093199 -13.853038 14.717055 10.370080 15.888862 3.136988 4.444547 0.126356 -0.157165 -7.203602 -4.786112 0.000001 0.000004 0.000000 -0.000002 -0.000000 -9.392097 -5.572193 -0.015200 -1.809522 -10.060480 2.447140 9.395998 -9.571421 -3.353165 -3.834050 -1.613459 3.537221 -7.262722 0.000005 -0.000003 0.000000 0.000002 0.000001 
0.823607 94.782631 -0.205301 -3.345249 -5.684835 -3.247346 -0.000000 10.058810 -0.358200 3.293599 1.557504 2.468464 1.156442 0.376026 1.783444 1.130240 0.395105 1.786488 0.000001 15.088245 -0.537228 5.592976 -0.029535 0.391959 -0.000002 8.085573 2.687801 -7.912649 1.655156 -0.303424 -0.000000 21.499237 7.146700 -0.000000 -0.000000 0.000000 5.949102 13.237033 -0.535855 1.039010 -17.302215 -12.372004 2.501800 -19.890788 -69.365468 -0.000004 -1.951671 -0.000009 -34.047199 -2.465863 -5.362413 2.802584 -1.204208 2.556229 -0.761876 1.974580 5.023095 2.466215 -1.423860 1.423863 11.784886 25.283204 17.100014 2.369816 -1.368246 1.368217 -13.824172 3.507497 9.033878 1.846500 -1.066085 1.066083 0.000003 -0.000000 0.000005 8.620475 -0.225961 2.435161 0.003071 -1.052213 -7.468846 3.045724 0.000021 -0.000001 0.267715 1.752407 -17.370745 2.806703 -0.000012 -0.000000 0.057605 0.820432 -8.032828 2.440116 -0.000002 0.000001 -0.000000 -0.000001 -0.000003 8.484859 -0.000024 -0.000002 -0.076286 2.648191 -15.492076 3.193598 -0.000016 -0.000000 0.267106 1.750478 -17.350965 3.085195 0.000003 -0.000000 0.298766 1.848674 -18.358782 2.692908 0.000008 -0.000000 0.000001 0.000000 0.000000 8.270780 0.052701 -2.023485 0.124492 3.606623 -21.066158 2.740806 0.000022 -0.000000 0.385799 2.092639 -20.889447 2.757616 0.000003 -0.000000 0.282368 1.798562 -17.843673 2.285003 -0.000003 -0.000000 0.000000 0.000001 0.000003 7.700767 -0.253611 -3.945379 0.826415 5.422363 -26.987737 2.527396 0.000005 -0.000001 0.268239 1.754086 -17.387867 2.003424 0.000001 0.000001 0.241383 1.665931 -16.487856 1.854499 0.000003 0.000001 -0.000000 -0.000001 -0.000003 -5.949112 13.237049 -0.538654 1.231900 15.552670 14.536497 12.395114 30.465765 58.434809 -0.000004 8.437712 0.000024 -21.979938 1.989467 5.815912 -2.702219 -1.308396 2.527624 -1.753723 -0.046917 -4.022656 -2.432017 -1.404114 1.404116 12.737870 -29.874978 -16.124881 -2.375204 -1.371340 1.371322 -15.612911 -3.418267 -12.661653 -1.987811 -1.147656 1.147655 0.000002 0.000000 0.000001 -8.671506 -0.301925 2.442634 0.027911 1.280468 6.932674 -3.068290 -0.000009 -0.000001 0.214488 -1.398499 17.438921 -2.779698 0.000005 0.000000 0.046395 -0.656416 8.085079 -2.490084 -0.000027 0.000002 0.000001 0.000001 0.000001 -8.656303 0.000000 0.000000 -0.098583 -2.387770 15.525956 -3.230412 0.000015 -0.000002 0.211671 -1.389517 17.323211 -3.025499 0.000002 0.000002 0.236838 -1.467670 18.331746 -2.688797 0.000002 0.000003 -0.000002 -0.000001 -0.000000 -8.628180 0.073819 -2.089274 0.034971 -3.107497 20.908066 -2.674076 0.000018 -0.000000 0.308099 -1.667350 20.936410 -2.630919 0.000012 -0.000001 0.225515 -1.433103 17.884859 -2.160604 0.000010 -0.000001 -0.000000 -0.000001 -0.000004 -7.514567 -0.339413 -3.927983 0.718880 -4.839637 27.414086 -2.509985 -0.000005 0.000001 0.214014 -1.396929 17.418526 -2.099207 0.000030 0.000001 0.192488 -1.326446 16.513473 -1.845595 0.000014 0.000002 -0.000001 -0.000001 -0.000000 9.392100 -5.572192 -0.093200 -13.759517 14.745572 10.342013 15.797948 2.868532 4.375442 0.181604 -0.116705 -7.092268 -4.799193 0.000006 0.000002 0.000000 -0.000003 -0.000000 -9.392099 -5.572190 -0.015201 -1.483606 -10.075455 2.490237 8.907142 -9.751854 -3.423992 -3.590931 -1.602639 3.588998 -7.268381 -0.000002 -0.000004 0.000001 0.000003 0.000001 
0.858114 94.798912 -0.197027 -3.427998 -5.504540 -3.248665 -0.000001 10.058800 -0.358201 3.295579 1.569743 2.455547 1.158852 0.397718 1.763723 1.132653 0.417041 1.766969 0.000000 15.088242 -0.537228 5.629156 -0.035079 0.389279 0.000001 8.085620 2.687801 -7.811142 1.619871 -0.267973 0.000000 21.499222 7.146699 -0.000000 0.000000 0.000000 5.949102 13.237003 -0.535853 1.040812 -17.292046 -12.355934 2.540655 -20.008192 -69.468106 0.000008 -2.038357 -0.000004 -34.175282 -2.528623 -5.414003 2.802589 -1.204205 2.556229 -0.757977 1.984276 4.997722 2.466200 -1.423868 1.423871 11.791629 25.296866 17.095895 2.369817 -1.368237 1.368222 -13.823408 3.509664 9.034019 1.846509 -1.066081 1.066086 0.000002 0.000003 0.000001 8.620476 -0.225967 2.435162 0.006411 -1.039564 -7.479315 3.045720 -0.000006 0.000001 0.267600 1.752039 -17.366919 2.806714 0.000003 0.000001 0.057555 0.820043 -8.029033 2.440131 -0.000001 -0.000000 0.000000 -0.000000 0.000001 8.484858 -0.000013 0.000000 -0.074763 2.654144 -15.495853 3.193607 -0.000008 0.000000 0.267188 1.750682 -17.352997 3.085219 0.000024 -0.000001 0.298818 1.848874 -18.360809 2.692906 -0.000012 -0.000000 0.000000 0.000000 0.000001 8.270761 0.052699 -2.023482 0.124517 3.607072 -21.074226 2.740776 0.000004 0.000000 0.385794 2.092631 -20.889404 2.757605 0.000003 0.000000 0.282367 1.798554 -17.843622 2.285011 0.000002 -0.000000 -0.000000 -0.000000 -0.000003 7.700755 -0.253608 -3.945377 0.839840 5.440180 -27.000837 2.527414 -0.000011 -0.000000 0.268195 1.753911 -17.386014 2.003404 0.000001 0.000000 0.241334 1.665748 -16.485990 1.854487 0.000006 0.000000 -0.000001 -0.000000 -0.000001 -5.949111 13.237027 -0.538655 1.233273 15.558112 14.528577 12.598406 30.600897 58.323402 -0.000008 8.441284 0.000022 -22.116173 1.910984 5.974650 -2.702194 -1.308382 2.527627 -1.755529 -0.027798 -4.107705 -2.432019 -1.404122 1.404125 12.689246 -29.785195 -16.135919 -2.375213 -1.371331 1.371325 -15.584788 -3.480789 -12.681798 -1.987803 -1.147672 1.147657 0.000002 -0.000002 0.000001 -8.671477 -0.301934 2.442639 0.031208 1.343438 6.761509 -3.068308 -0.000001 -0.000001 0.214127 -1.397369 17.424265 -2.779696 0.000008 -0.000000 0.046237 -0.655245 8.070457 -2.490074 0.000001 0.000001 -0.000002 0.000002 0.000003 -8.656299 0.000010 0.000003 -0.107840 -2.334160 15.275547 -3.230402 0.000006 0.000001 0.211977 -1.390415 17.334761 -3.025493 0.000001 0.000002 0.237125 -1.468580 18.343494 -2.688803 0.000011 -0.000001 -0.000000 -0.000001 -0.000000 -8.628170 0.073819 -2.089272 0.035483 -3.099187 20.686835 -2.674109 0.000015 -0.000000 0.307937 -1.666925 20.930684 -2.630903 0.000027 -0.000001 0.225376 -1.432659 17.879318 -2.160597 -0.000004 -0.000002 -0.000001 -0.000000 -0.000001 -7.514556 -0.339408 -3.927980 0.731600 -4.858328 27.038829 -2.510015 -0.000001 0.000000 0.214414 -1.398202 17.434961 -2.099216 -0.000005 0.000003 0.192906 -1.327855 16.531494 -1.845593 -0.000012 -0.000000 -0.000001 0.000002 0.000002 9.392098 -5.572188 -0.093199 -13.630364 14.765441 10.314431 15.679908 2.636037 4.320136 0.245573 -0.070883 -7.012205 -4.813175 0.000005 0.000004 -0.000000 0.000000 0.000001 -9.392101 -5.572196 -0.015200 -1.152750 -10.096905 2.530692 8.444581 -9.893677 -3.474766 -3.372191 -1.592173 3.615234 -7.263974 -0.000013 -0.000008 -0.000000 -0.000002 0.000001 
0.870516 94.814072 -0.176872 -3.527434 -5.355882 -3.246743 -0.000001 10.058800 -0.358200 3.300487 1.576013 2.441301 1.163554 0.409480 1.742211 1.137377 0.429110 1.745617 -0.000000 15.088228 -0.537227 5.672876 -0.037759 0.389409 0.000001 8.085594 2.687801 -7.699242 1.601198 -0.236885 0.000001 21.499207 7.146699 -0.000000 -0.000000 -0.000000 5.949102 13.237020 -0.535854 1.043850 -17.297669 -12.333363 2.641828 -20.060973 -69.553456 -0.000023 -2.057580 0.000005 -34.214115 -2.508332 -5.493865 2.802581 -1.204190 2.556231 -0.739612 2.020148 4.952758 2.466212 -1.423838 1.423868 11.804965 25.323780 17.087807 2.369836 -1.368220 1.368224 -13.821939 3.513964 9.034329 1.846512 -1.066089 1.066079 0.000002 -0.000003 -0.000000 8.620457 -0.225960 2.435162 0.012918 -1.016948 -7.493324 3.045729 0.000013 -0.000003 0.267541 1.751860 -17.365093 2.806712 0.000001 -0.000001 0.057521 0.819865 -8.027281 2.440128 -0.000000 -0.000002 -0.000001 -0.000000 -0.000001 8.484851 -0.000014 0.000000 -0.067807 2.681158 -15.517609 3.193613 -0.000015 -0.000001 0.267259 1.750978 -17.356045 3.085202 -0.000007 -0.000001 0.298933 1.849168 -18.363819 2.692902 -0.000030 -0.000001 -0.000001 0.000000 0.000003 8.270761 0.052672 -2.023483 0.126493 3.612888 -21.090827 2.740786 0.000014 -0.000001 0.385828 2.092721 -20.890320 2.757615 0.000020 0.000000 0.282387 1.798626 -17.844388 2.285022 -0.000014 -0.000001 -0.000000 -0.000000 0.000005 7.700750 -0.253608 -3.945375 0.862794 5.470151 -27.033511 2.527379 0.000006 -0.000001 0.268000 1.753269 -17.379444 2.003434 0.000008 0.000000 0.241134 1.665102 -16.479454 1.854491 -0.000006 0.000000 0.000000 -0.000000 0.000000 -5.949119 13.237028 -0.538653 1.231443 15.546902 14.539251 12.848432 30.699904 58.200315 0.000003 8.377732 0.000020 -22.168692 1.735238 6.189591 -2.702207 -1.308373 2.527620 -1.761585 -0.001606 -4.187768 -2.432035 -1.404129 1.404122 12.640793 -29.695572 -16.146900 -2.375213 -1.371341 1.371329 -15.553866 -3.549522 -12.703944 -1.987803 -1.147669 1.147652 0.000000 0.000003 0.000005 -8.671494 -0.301936 2.442636 0.036716 1.417933 6.551839 -3.068301 -0.000014 -0.000003 0.213099 -1.394056 17.381658 -2.779709 0.000014 -0.000001 0.045741 -0.651810 8.027847 -2.490098 -0.000011 0.000000 0.000001 -0.000001 -0.000003 -8.656301 -0.000006 -0.000001 -0.120635 -2.259491 14.950239 -3.230405 0.000019 -0.000001 0.212103 -1.390836 17.340141 -3.025494 0.000010 0.000002 0.237287 -1.469028 18.349185 -2.688803 0.000011 0.000002 0.000003 -0.000001 -0.000000 -8.628184 0.073831 -2.089273 0.032869 -3.080432 20.419137 -2.674088 -0.000001 0.000002 0.307060 -1.664637 20.900553 -2.630908 0.000012 -0.000001 0.224624 -1.430331 17.849233 -2.160599 0.000018 0.000001 -0.000002 0.000001 -0.000003 -7.514573 -0.339413 -3.927983 0.742795 -4.879012 26.583878 -2.510009 -0.000009 -0.000001 0.214640 -1.398947 17.444599 -2.099183 0.000012 0.000003 0.193166 -1.328716 16.542494 -1.845593 -0.000004 0.000002 -0.000001 0.000001 0.000002 9.392099 -5.572196 -0.093199 -13.459187 14.774748 10.284516 15.542785 2.443926 4.283183 0.310620 -0.020341 -6.964977 -4.835012 -0.000004 0.000001 -0.000000 0.000001 -0.000000 -9.392100 -5.572184 -0.015200 -0.807181 -10.128617 2.566684 8.007946 -9.992029 -3.505343 -3.179191 -1.582595 3.619333 -7.251668 -0.000004 -0.000007 0.000001 0.000002 0.000001 
